<svg width="94" height="72" viewBox="0 0 94 72" fill="none" xmlns="http://www.w3.org/2000/svg">
<rect x="14" width="64" height="64" rx="16" fill="white" fill-opacity="0.1"/>
<g clip-path="url(#clip0_584_880)">
<path d="M47.0512 51.6185C58.5089 51.6185 67.7972 42.3302 67.7972 30.8725C67.7972 19.4148 58.5089 10.1265 47.0512 10.1265C35.5935 10.1265 26.3052 19.4148 26.3052 30.8725C26.3052 42.3302 35.5935 51.6185 47.0512 51.6185Z" fill="white"/>
<path d="M47.0512 51.6185C58.5089 51.6185 67.7972 42.3302 67.7972 30.8725C67.7972 19.4148 58.5089 10.1265 47.0512 10.1265C35.5935 10.1265 26.3052 19.4148 26.3052 30.8725C26.3052 42.3302 35.5935 51.6185 47.0512 51.6185Z" fill="url(#paint0_linear_584_880)"/>
<path d="M42.1196 54.7867C42.2637 64.1015 34.8291 71.7696 25.5142 71.9135C16.1993 72.0575 8.53132 64.623 8.38731 55.3081C8.24331 45.9932 15.6779 38.3252 24.9927 38.1813C34.3076 38.0372 41.9757 45.4717 42.1196 54.7867Z" fill="url(#paint1_radial_584_880)"/>
<path d="M89.7098 47.6641C89.5542 48.1181 89.1653 48.5354 88.4588 48.8864C87.7502 49.2384 86.766 49.5004 85.5134 49.6578C83.0102 49.9727 79.5497 49.8574 75.3631 49.3273C66.9983 48.2682 55.8423 45.5676 43.8845 41.4708C31.9268 37.3741 21.4585 32.6661 14.2016 28.3731C10.5696 26.2245 7.76539 24.1934 5.9812 22.4098C5.0883 21.5172 4.47149 20.7068 4.1277 19.9943C3.78487 19.2837 3.73354 18.7156 3.88909 18.2615C4.04465 17.8075 4.43356 17.3903 5.14011 17.0392C5.84861 16.6872 6.83282 16.4253 8.0855 16.2678C10.5886 15.953 14.0492 16.0683 18.2358 16.5984C26.6006 17.6575 37.7565 20.3581 49.7144 24.4548C61.6721 28.5516 72.1404 33.2596 79.3972 37.5525C83.0292 39.7012 85.8334 41.7322 87.6176 43.5159C88.5106 44.4085 89.1274 45.2189 89.4711 45.9314C89.814 46.642 89.8654 47.2101 89.7098 47.6641Z" stroke="url(#paint2_linear_584_880)" stroke-width="0.999783"/>
<path d="M68.3702 15.5273C65.4139 12.4738 60.5421 12.3949 57.4885 15.3512C54.435 18.3073 54.3561 23.1793 57.3124 26.2327C60.2685 29.2863 65.1405 29.3651 68.194 26.409C71.2475 23.4527 71.3264 18.5809 68.3702 15.5273Z" fill="url(#paint3_radial_584_880)"/>
</g>
<defs>
<linearGradient id="paint0_linear_584_880" x1="47.0512" y1="10.1265" x2="47.0512" y2="51.6185" gradientUnits="userSpaceOnUse">
<stop stop-color="#FD91FF"/>
<stop offset="0.34375" stop-color="#A0A8FF"/>
<stop offset="0.947005" stop-color="#C9F2FF"/>
</linearGradient>
<radialGradient id="paint1_radial_584_880" cx="0" cy="0" r="1" gradientUnits="userSpaceOnUse" gradientTransform="translate(18.9242 60.1919) rotate(-43.7151) scale(25.992 33.4952)">
<stop offset="0.581217" stop-color="#2B152F"/>
<stop offset="0.753744" stop-color="#413686"/>
<stop offset="0.963759" stop-color="#5CB1E0"/>
</radialGradient>
<linearGradient id="paint2_linear_584_880" x1="47.9607" y1="40.9912" x2="52.4598" y2="27.994" gradientUnits="userSpaceOnUse">
<stop stop-color="#F3FCFF"/>
<stop offset="0.47974" stop-color="#654BAE"/>
<stop offset="1" stop-color="#303261" stop-opacity="0"/>
</linearGradient>
<radialGradient id="paint3_radial_584_880" cx="0" cy="0" r="1" gradientUnits="userSpaceOnUse" gradientTransform="translate(72.7072 16.5313) rotate(148.456) scale(18.244 18.244)">
<stop offset="0.357721" stop-color="#171717"/>
<stop offset="0.703125" stop-color="#261C33"/>
<stop offset="0.866261" stop-color="#582A60"/>
</radialGradient>
<clipPath id="clip0_584_880">
<rect width="92.7969" height="71.9844" fill="white" transform="translate(0.5625)"/>
</clipPath>
</defs>
</svg>
