<svg width="125" height="117" viewBox="0 0 125 117" fill="none" xmlns="http://www.w3.org/2000/svg">
<rect x="32" y="29" width="64" height="64" rx="16" fill="white" fill-opacity="0.1"/>
<g clip-path="url(#clip0_575_852)">
<path d="M72.1232 64.5625H89.028L96.1996 70.1932L72.1232 93.2298L48.0469 70.1932L63.1588 65.0742L72.1232 64.5625Z" fill="url(#paint0_linear_575_852)"/>
<path d="M72.1233 93.2282L57.7798 75.8237H86.4666L72.1233 93.2282Z" fill="url(#paint1_linear_575_852)"/>
<path d="M86.4665 75.8235L96.1996 70.1928L72.1232 47.1562L48.0469 70.1928L57.78 75.8235H86.4665Z" fill="url(#paint2_linear_575_852)"/>
<path d="M72.1235 47.1582L86.4668 75.8244H57.7803L72.1235 47.1582Z" fill="url(#paint3_linear_575_852)"/>
<g opacity="0.15" filter="url(#filter0_f_575_852)">
<path d="M22.2786 60.5709C22.2786 60.5709 13.3483 93.1513 43.58 112.147C69.146 128.211 94.9666 95.2182 75.7458 78.3921C62.5764 66.864 62.2331 58.2379 61.3968 46.9902C60.0702 29.1482 32.7348 20.8716 22.2786 60.5709Z" fill="url(#paint4_radial_575_852)"/>
</g>
</g>
<defs>
<filter id="filter0_f_575_852" x="-0.953125" y="10.1562" width="105.382" height="128.283" filterUnits="userSpaceOnUse" color-interpolation-filters="sRGB">
<feFlood flood-opacity="0" result="BackgroundImageFix"/>
<feBlend mode="normal" in="SourceGraphic" in2="BackgroundImageFix" result="shape"/>
<feGaussianBlur stdDeviation="11" result="effect1_foregroundBlur_575_852"/>
</filter>
<linearGradient id="paint0_linear_575_852" x1="85.4423" y1="64.5625" x2="85.4423" y2="100.908" gradientUnits="userSpaceOnUse">
<stop stop-color="#78CCFB"/>
<stop offset="1" stop-color="#00BD90"/>
</linearGradient>
<linearGradient id="paint1_linear_575_852" x1="72.1233" y1="100.907" x2="72.1233" y2="75.8237" gradientUnits="userSpaceOnUse">
<stop stop-color="#17DAB0"/>
<stop offset="1" stop-color="#58E1FF"/>
</linearGradient>
<linearGradient id="paint2_linear_575_852" x1="58.6121" y1="85.5496" x2="58.6121" y2="39.4778" gradientUnits="userSpaceOnUse">
<stop stop-color="#86F8FF"/>
<stop offset="1" stop-color="#ECA2FF"/>
</linearGradient>
<linearGradient id="paint3_linear_575_852" x1="71.9046" y1="39.4798" x2="71.9046" y2="75.8244" gradientUnits="userSpaceOnUse">
<stop stop-color="#DEB5FF"/>
<stop offset="1" stop-color="#A7FAFF"/>
</linearGradient>
<radialGradient id="paint4_radial_575_852" cx="0" cy="0" r="1" gradientUnits="userSpaceOnUse" gradientTransform="translate(62.2034 50.8708) rotate(92.6593) scale(58.1852 51.9563)">
<stop stop-color="#DBBBFF"/>
<stop offset="1" stop-color="#0FF7EC"/>
</radialGradient>
<clipPath id="clip0_575_852">
<rect width="124" height="116" fill="white" transform="translate(0.34375 0.5)"/>
</clipPath>
</defs>
</svg>
