<svg width="134" height="72" viewBox="0 0 134 72" fill="none" xmlns="http://www.w3.org/2000/svg">
<path d="M67.4887 51.6185C78.9464 51.6185 88.2347 42.3302 88.2347 30.8725C88.2347 19.4148 78.9464 10.1265 67.4887 10.1265C56.031 10.1265 46.7427 19.4148 46.7427 30.8725C46.7427 42.3302 56.031 51.6185 67.4887 51.6185Z" fill="white"/>
<path d="M67.4887 51.6185C78.9464 51.6185 88.2347 42.3302 88.2347 30.8725C88.2347 19.4148 78.9464 10.1265 67.4887 10.1265C56.031 10.1265 46.7427 19.4148 46.7427 30.8725C46.7427 42.3302 56.031 51.6185 67.4887 51.6185Z" fill="url(#paint0_linear_575_863)"/>
<path d="M62.5571 54.7867C62.7012 64.1015 55.2666 71.7696 45.9517 71.9135C36.6368 72.0575 28.9688 64.623 28.8248 55.3081C28.6808 45.9932 36.1154 38.3252 45.4302 38.1813C54.7451 38.0372 62.4132 45.4717 62.5571 54.7867Z" fill="url(#paint1_radial_575_863)"/>
<path d="M110.147 47.6641C109.992 48.1181 109.603 48.5354 108.896 48.8864C108.188 49.2384 107.204 49.5004 105.951 49.6578C103.448 49.9727 99.9872 49.8574 95.8006 49.3273C87.4358 48.2682 76.2798 45.5676 64.322 41.4708C52.3643 37.3741 41.896 32.6661 34.6391 28.3731C31.0071 26.2245 28.2029 24.1934 26.4187 22.4098C25.5258 21.5172 24.909 20.7068 24.5652 19.9943C24.2224 19.2837 24.171 18.7156 24.3266 18.2615C24.4822 17.8075 24.8711 17.3903 25.5776 17.0392C26.2861 16.6872 27.2703 16.4253 28.523 16.2678C31.0261 15.953 34.4867 16.0683 38.6733 16.5984C47.0381 17.6575 58.194 20.3581 70.1519 24.4548C82.1096 28.5516 92.5779 33.2596 99.8347 37.5525C103.467 39.7012 106.271 41.7322 108.055 43.5159C108.948 44.4085 109.565 45.2189 109.909 45.9314C110.251 46.642 110.303 47.2101 110.147 47.6641Z" stroke="url(#paint2_linear_575_863)" stroke-width="0.999783"/>
<path d="M88.8077 15.5273C85.8514 12.4738 80.9796 12.3949 77.926 15.3512C74.8725 18.3073 74.7936 23.1793 77.7499 26.2327C80.706 29.2863 85.578 29.3651 88.6315 26.409C91.685 23.4527 91.7639 18.5809 88.8077 15.5273Z" fill="url(#paint3_radial_575_863)"/>
<defs>
<linearGradient id="paint0_linear_575_863" x1="67.4887" y1="10.1265" x2="67.4887" y2="51.6185" gradientUnits="userSpaceOnUse">
<stop stop-color="#FD91FF"/>
<stop offset="0.34375" stop-color="#A0A8FF"/>
<stop offset="0.947005" stop-color="#C9F2FF"/>
</linearGradient>
<radialGradient id="paint1_radial_575_863" cx="0" cy="0" r="1" gradientUnits="userSpaceOnUse" gradientTransform="translate(39.3617 60.1919) rotate(-43.7151) scale(25.992 33.4952)">
<stop offset="0.581217" stop-color="#2B152F"/>
<stop offset="0.753744" stop-color="#413686"/>
<stop offset="0.963759" stop-color="#5CB1E0"/>
</radialGradient>
<linearGradient id="paint2_linear_575_863" x1="68.3982" y1="40.9912" x2="72.8973" y2="27.994" gradientUnits="userSpaceOnUse">
<stop stop-color="#F3FCFF"/>
<stop offset="0.47974" stop-color="#654BAE"/>
<stop offset="1" stop-color="#303261" stop-opacity="0"/>
</linearGradient>
<radialGradient id="paint3_radial_575_863" cx="0" cy="0" r="1" gradientUnits="userSpaceOnUse" gradientTransform="translate(93.1447 16.5313) rotate(148.456) scale(18.244 18.244)">
<stop offset="0.357721" stop-color="#171717"/>
<stop offset="0.703125" stop-color="#261C33"/>
<stop offset="0.866261" stop-color="#582A60"/>
</radialGradient>
</defs>
</svg>
