<svg width="258" height="55" viewBox="0 0 258 55" fill="none" xmlns="http://www.w3.org/2000/svg">
<path d="M84.0824 7.27273H96.2727L106.614 32.4886H107.091L117.432 7.27273H129.622V48H120.037V22.983H119.699L109.915 47.7415H103.79L94.0057 22.8438H93.6676V48H84.0824V7.27273ZM140.669 48.517C138.72 48.517 136.99 48.1922 135.479 47.5426C133.981 46.8797 132.794 45.8854 131.919 44.5597C131.057 43.2206 130.626 41.5436 130.626 39.5284C130.626 37.8314 130.925 36.3996 131.521 35.233C132.118 34.0663 132.94 33.1184 133.987 32.3892C135.034 31.66 136.241 31.1098 137.606 30.7386C138.972 30.3542 140.43 30.0956 141.981 29.9631C143.718 29.804 145.117 29.6383 146.177 29.4659C147.238 29.2803 148.007 29.0218 148.484 28.6903C148.975 28.3456 149.22 27.8617 149.22 27.2386V27.1392C149.22 26.1184 148.869 25.3295 148.166 24.7727C147.463 24.2159 146.516 23.9375 145.322 23.9375C144.036 23.9375 143.002 24.2159 142.22 24.7727C141.438 25.3295 140.941 26.0985 140.729 27.0795L131.76 26.7614C132.025 24.9053 132.708 23.2481 133.808 21.7898C134.922 20.3182 136.446 19.1648 138.382 18.3295C140.331 17.4811 142.671 17.0568 145.402 17.0568C147.351 17.0568 149.147 17.2888 150.791 17.7528C152.435 18.2036 153.867 18.8665 155.087 19.7415C156.306 20.6032 157.248 21.6638 157.91 22.9233C158.587 24.1828 158.925 25.6212 158.925 27.2386V48H149.777V43.7443H149.538C148.995 44.7784 148.299 45.6534 147.45 46.3693C146.615 47.0852 145.627 47.6222 144.487 47.9801C143.36 48.3381 142.088 48.517 140.669 48.517ZM143.672 42.1534C144.719 42.1534 145.66 41.9413 146.496 41.517C147.344 41.0928 148.02 40.5095 148.524 39.767C149.028 39.0114 149.28 38.1364 149.28 37.142V34.2386C149.001 34.3845 148.663 34.517 148.266 34.6364C147.881 34.7557 147.457 34.8684 146.993 34.9744C146.529 35.0805 146.052 35.1733 145.561 35.2528C145.07 35.3324 144.6 35.4053 144.149 35.4716C143.234 35.6174 142.452 35.8428 141.802 36.1477C141.166 36.4527 140.676 36.8504 140.331 37.3409C139.999 37.8182 139.834 38.3883 139.834 39.0511C139.834 40.0587 140.192 40.8277 140.908 41.358C141.637 41.8883 142.558 42.1534 143.672 42.1534ZM170.891 30.5795V48H161.167V17.4545H170.414V23.0625H170.752C171.428 21.1932 172.582 19.7282 174.212 18.6676C175.843 17.5938 177.785 17.0568 180.039 17.0568C182.187 17.0568 184.049 17.5407 185.627 18.5085C187.218 19.4631 188.451 20.8021 189.326 22.5256C190.214 24.2358 190.652 26.2377 190.638 28.5312V48H180.914V30.4403C180.927 28.7434 180.496 27.4176 179.621 26.4631C178.76 25.5085 177.56 25.0312 176.022 25.0312C175.001 25.0312 174.1 25.2566 173.317 25.7074C172.548 26.1449 171.952 26.7746 171.528 27.5966C171.117 28.4186 170.904 29.4129 170.891 30.5795ZM201.566 48.517C199.617 48.517 197.887 48.1922 196.375 47.5426C194.877 46.8797 193.691 45.8854 192.816 44.5597C191.954 43.2206 191.523 41.5436 191.523 39.5284C191.523 37.8314 191.821 36.3996 192.418 35.233C193.015 34.0663 193.837 33.1184 194.884 32.3892C195.931 31.66 197.138 31.1098 198.503 30.7386C199.869 30.3542 201.327 30.0956 202.878 29.9631C204.615 29.804 206.014 29.6383 207.074 29.4659C208.135 29.2803 208.904 29.0218 209.381 28.6903C209.872 28.3456 210.117 27.8617 210.117 27.2386V27.1392C210.117 26.1184 209.766 25.3295 209.063 24.7727C208.36 24.2159 207.412 23.9375 206.219 23.9375C204.933 23.9375 203.899 24.2159 203.117 24.7727C202.335 25.3295 201.838 26.0985 201.625 27.0795L192.657 26.7614C192.922 24.9053 193.605 23.2481 194.705 21.7898C195.819 20.3182 197.343 19.1648 199.279 18.3295C201.228 17.4811 203.568 17.0568 206.299 17.0568C208.248 17.0568 210.044 17.2888 211.688 17.7528C213.332 18.2036 214.764 18.8665 215.983 19.7415C217.203 20.6032 218.144 21.6638 218.807 22.9233C219.483 24.1828 219.821 25.6212 219.821 27.2386V48H210.674V43.7443H210.435C209.892 44.7784 209.196 45.6534 208.347 46.3693C207.512 47.0852 206.524 47.6222 205.384 47.9801C204.257 48.3381 202.984 48.517 201.566 48.517ZM204.569 42.1534C205.616 42.1534 206.557 41.9413 207.392 41.517C208.241 41.0928 208.917 40.5095 209.421 39.767C209.925 39.0114 210.177 38.1364 210.177 37.142V34.2386C209.898 34.3845 209.56 34.517 209.162 34.6364C208.778 34.7557 208.354 34.8684 207.89 34.9744C207.426 35.0805 206.948 35.1733 206.458 35.2528C205.967 35.3324 205.497 35.4053 205.046 35.4716C204.131 35.6174 203.349 35.8428 202.699 36.1477C202.063 36.4527 201.572 36.8504 201.228 37.3409C200.896 37.8182 200.731 38.3883 200.731 39.0511C200.731 40.0587 201.089 40.8277 201.804 41.358C202.534 41.8883 203.455 42.1534 204.569 42.1534ZM248.731 26.7812L239.802 27.0199C239.709 26.3835 239.458 25.8201 239.047 25.3295C238.636 24.8258 238.099 24.4347 237.436 24.1562C236.786 23.8646 236.03 23.7188 235.169 23.7188C234.042 23.7188 233.081 23.9441 232.285 24.3949C231.503 24.8456 231.119 25.4555 231.132 26.2244C231.119 26.821 231.357 27.3381 231.848 27.7756C232.351 28.2131 233.246 28.5644 234.532 28.8295L240.419 29.9432C243.468 30.5265 245.735 31.4943 247.22 32.8466C248.718 34.1989 249.474 35.9886 249.487 38.2159C249.474 40.3106 248.851 42.1335 247.618 43.6847C246.398 45.2358 244.727 46.4422 242.606 47.304C240.485 48.1525 238.059 48.5767 235.328 48.5767C230.966 48.5767 227.526 47.6818 225.007 45.892C222.501 44.089 221.069 41.6761 220.711 38.6534L230.316 38.4148C230.529 39.5284 231.079 40.3769 231.967 40.9602C232.855 41.5436 233.989 41.8352 235.368 41.8352C236.614 41.8352 237.628 41.6032 238.41 41.1392C239.192 40.6752 239.59 40.0587 239.603 39.2898C239.59 38.6004 239.285 38.0502 238.689 37.6392C238.092 37.215 237.157 36.8835 235.885 36.6449L230.555 35.6307C227.493 35.0739 225.212 34.0464 223.714 32.5483C222.216 31.0369 221.474 29.1146 221.487 26.7812C221.474 24.7396 222.017 22.9962 223.118 21.5511C224.218 20.0928 225.782 18.9792 227.811 18.2102C229.839 17.4413 232.232 17.0568 234.99 17.0568C239.126 17.0568 242.387 17.9252 244.774 19.6619C247.16 21.3854 248.479 23.7585 248.731 26.7812Z" fill="white"/>
<path d="M35.7074 46.681C47.1651 46.681 56.4534 37.3927 56.4534 25.935C56.4534 14.4773 47.1651 5.18896 35.7074 5.18896C24.2497 5.18896 14.9614 14.4773 14.9614 25.935C14.9614 37.3927 24.2497 46.681 35.7074 46.681Z" fill="white"/>
<path d="M35.7074 46.681C47.1651 46.681 56.4534 37.3927 56.4534 25.935C56.4534 14.4773 47.1651 5.18896 35.7074 5.18896C24.2497 5.18896 14.9614 14.4773 14.9614 25.935C14.9614 37.3927 24.2497 46.681 35.7074 46.681Z" fill="url(#paint0_linear_556_263)"/>
<path d="M68.9348 39.3297C68.8136 39.6796 68.5106 40.0012 67.96 40.2717C67.4079 40.543 66.6411 40.7449 65.6651 40.8662C63.7147 41.1088 61.0183 41.02 57.7562 40.6115C51.2385 39.7953 42.546 37.714 33.2288 34.5568C23.9116 31.3996 15.7549 27.7713 10.1005 24.4629C7.27053 22.807 5.08553 21.2418 3.69532 19.8672C2.9996 19.1793 2.51899 18.5547 2.25112 18.0056C1.98398 17.458 1.94399 17.0202 2.0652 16.6702C2.1864 16.3204 2.48943 15.9988 3.03996 15.7282C3.59201 15.457 4.35888 15.2552 5.33494 15.1337C7.2853 14.8912 9.98172 14.98 13.2438 15.3885C19.7615 16.2047 28.454 18.286 37.7712 21.4432C47.0884 24.6004 55.2451 28.2287 60.8995 31.5371C63.7295 33.193 65.9144 34.7583 67.3047 36.1328C68.0004 36.8207 68.481 37.4453 68.7489 37.9944C69.016 38.542 69.056 38.9798 68.9348 39.3297Z" stroke="url(#paint1_linear_556_263)" stroke-width="3"/>
<defs>
<linearGradient id="paint0_linear_556_263" x1="35.7074" y1="5.18896" x2="35.7074" y2="46.681" gradientUnits="userSpaceOnUse">
<stop stop-color="#FD91FF"/>
<stop offset="0.34375" stop-color="#A0A8FF"/>
<stop offset="0.947005" stop-color="#C9F2FF"/>
</linearGradient>
<linearGradient id="paint1_linear_556_263" x1="36.4049" y1="34.1872" x2="39.8422" y2="24.1474" gradientUnits="userSpaceOnUse">
<stop stop-color="#F3FCFF"/>
<stop offset="0.47974" stop-color="#654BAE"/>
<stop offset="1" stop-color="#303261" stop-opacity="0"/>
</linearGradient>
</defs>
</svg>
